<?xml version="1.0" standalone="no"?>
<!DOCTYPE svg PUBLIC "-//W3C//DTD SVG 20010904//EN"
 "http://www.w3.org/TR/2001/REC-SVG-20010904/DTD/svg10.dtd">
<svg version="1.0" xmlns="http://www.w3.org/2000/svg"
 width="500.000000pt" height="500.000000pt" viewBox="0 0 500.000000 500.000000"
 preserveAspectRatio="xMidYMid meet">

<g transform="translate(0.000000,500.000000) scale(0.100000,-0.100000)"
fill="#000000" stroke="none">
<path d="M2500 4932 l0 -70 88 -6 c398 -27 664 -97 979 -255 451 -226 822
-604 1048 -1066 114 -233 182 -451 221 -715 25 -161 24 -483 0 -645 -16 -105
-72 -351 -91 -396 -5 -14 7 -21 60 -39 36 -12 68 -20 69 -19 6 7 54 185 70
259 68 317 72 653 10 986 -167 912 -857 1671 -1757 1934 -191 55 -364 84 -569
95 l-128 7 0 -70z"/>
<path d="M1660 4855 c-528 -187 -990 -563 -1295 -1056 -103 -167 -237 -465
-212 -474 63 -23 102 -35 112 -35 6 0 24 33 40 73 15 39 54 125 87 190 190
382 489 712 856 944 122 77 347 185 477 229 61 21 111 38 113 39 8 6 -33 135
-43 134 -5 0 -66 -20 -135 -44z"/>
<path d="M2500 4683 l0 -70 148 -11 c315 -26 590 -106 854 -249 195 -105 343
-219 516 -397 l114 -116 49 41 c27 22 49 44 49 49 0 14 -139 163 -222 237
-394 353 -862 548 -1387 579 l-121 7 0 -70z"/>
<path d="M2215 4474 c-567 -86 -1052 -391 -1366 -858 -232 -344 -339 -694
-339 -1104 0 -193 17 -339 59 -506 198 -779 856 -1370 1650 -1480 146 -21 421
-21 560 -1 274 40 555 146 804 302 160 100 378 303 505 471 260 341 402 760
402 1185 0 481 -154 918 -450 1282 -70 85 -243 254 -325 316 -271 207 -596
344 -936 393 -132 20 -437 20 -564 0z m412 -446 c-3 -13 -33 -180 -67 -373
-34 -192 -63 -351 -65 -353 -1 -2 -29 -2 -62 0 l-59 3 63 360 c35 198 65 366
68 373 3 8 26 12 66 12 58 0 61 -1 56 -22z m-469 -131 l42 -43 -90 -89 -90
-90 90 -90 90 -91 -45 -44 -45 -44 -130 129 c-72 71 -130 134 -130 140 0 10
250 265 260 265 3 0 25 -19 48 -43z m867 -357 c-71 -71 -134 -130 -140 -130
-6 0 -29 18 -50 40 l-39 40 92 93 92 92 -90 90 -90 89 42 43 43 43 135 -135
135 -135 -130 -130z m-1248 -605 c27 -8 58 -24 68 -35 18 -19 18 -20 -3 -20
-23 0 -29 -14 -12 -25 17 -10 11 -25 -10 -25 -23 0 -24 -5 -9 -49 10 -27 15
-31 49 -31 45 0 50 -10 50 -122 0 -76 0 -77 -27 -80 -32 -4 -44 -28 -14 -28
19 0 21 -6 21 -65 0 -37 4 -65 10 -65 6 0 10 -17 10 -39 0 -30 -4 -40 -20 -44
-13 -3 -20 -14 -20 -30 0 -59 -12 -86 -38 -89 -41 -5 -38 -26 4 -30 l38 -3
-33 -37 c-21 -24 -42 -38 -57 -38 -14 0 -52 -9 -86 -21 -56 -19 -80 -20 -277
-17 -158 3 -224 7 -246 18 -28 13 -29 14 -8 17 23 4 22 5 -8 43 -28 35 -37 39
-82 42 -60 4 -79 28 -22 28 31 0 36 3 31 17 -4 9 -10 36 -13 60 -4 33 -10 43
-24 43 -15 0 -19 8 -19 40 0 33 3 40 20 40 18 0 20 7 20 65 0 63 -1 65 -25 65
-16 0 -25 6 -25 15 0 11 11 15 40 15 l40 0 0 78 c0 42 3 87 6 100 6 20 3 22
-36 22 -34 0 -41 3 -36 16 3 9 9 27 12 40 5 18 13 24 34 24 19 0 33 8 44 25
12 18 25 25 47 25 16 0 42 9 58 21 57 42 96 48 302 49 145 0 208 -4 246 -15z
m1038 0 c22 -8 50 -15 62 -15 35 0 53 -11 69 -41 l15 -29 -42 0 c-38 0 -41 -2
-36 -22 3 -13 9 -47 13 -75 4 -35 11 -53 20 -53 19 0 18 -59 -1 -66 -8 -4 -15
-12 -15 -18 0 -7 -11 -34 -24 -61 -23 -44 -24 -49 -9 -71 12 -19 24 -24 59
-24 24 0 44 -4 44 -10 0 -5 -22 -10 -49 -10 -28 0 -52 -3 -54 -7 -2 -5 1 -32
6 -60 l9 -53 39 0 c39 0 40 -1 37 -32 -3 -30 -6 -33 -41 -36 -40 -3 -42 -6
-51 -64 l-5 -38 40 0 c24 0 38 -4 34 -10 -3 -5 -30 -10 -58 -11 -47 0 -55 -4
-80 -35 l-29 -34 44 0 c33 -1 39 -3 26 -11 -18 -10 -539 -6 -661 6 -53 5 -70
11 -82 28 -27 38 -19 47 40 47 30 0 55 5 55 10 0 6 -18 10 -40 10 l-40 0 0 55
0 55 70 0 70 0 0 30 0 30 -70 0 -70 0 0 60 0 60 55 0 c30 0 55 5 55 10 0 6
-18 10 -40 10 l-40 0 0 90 c0 53 4 90 10 90 6 0 10 14 10 30 0 29 -2 30 -45
30 l-45 0 0 75 0 75 75 0 c72 0 75 1 75 23 0 13 5 28 12 35 9 9 -10 12 -87 12
-92 1 -98 2 -75 15 37 21 687 21 745 0z m1000 0 c22 -8 50 -15 62 -15 35 0 53
-11 69 -41 l15 -29 -42 0 c-38 0 -41 -2 -36 -22 3 -13 9 -47 13 -75 4 -35 11
-53 20 -53 19 0 18 -59 -1 -66 -8 -4 -15 -12 -15 -18 0 -7 -11 -34 -24 -61
-23 -44 -24 -49 -9 -71 12 -19 24 -24 59 -24 24 0 44 -4 44 -10 0 -5 -22 -10
-49 -10 -28 0 -52 -3 -54 -7 -2 -5 1 -32 6 -60 l9 -53 39 0 c39 0 40 -1 37
-32 -3 -30 -6 -33 -41 -36 -40 -3 -42 -6 -51 -64 l-5 -38 40 0 c24 0 38 -4 34
-10 -3 -5 -30 -10 -58 -11 -47 0 -55 -4 -80 -35 l-29 -34 44 0 c33 -1 39 -3
26 -11 -18 -10 -539 -6 -661 6 -53 5 -70 11 -82 28 -27 38 -19 47 40 47 30 0
55 5 55 10 0 6 -18 10 -40 10 l-40 0 0 55 0 55 70 0 70 0 0 30 0 30 -70 0 -70
0 0 60 0 60 55 0 c30 0 55 5 55 10 0 6 -18 10 -40 10 l-40 0 0 90 c0 53 4 90
10 90 6 0 10 14 10 30 0 29 -2 30 -45 30 l-45 0 0 75 0 75 75 0 c72 0 75 1 75
23 0 13 5 28 12 35 9 9 -10 12 -87 12 -92 1 -98 2 -75 15 37 21 687 21 745 0z
m-1955 -1414 l0 -48 39 10 c52 14 86 -7 101 -63 20 -76 -16 -140 -80 -140 -20
0 -42 6 -49 13 -11 10 -14 10 -18 0 -3 -7 -9 -13 -14 -13 -5 0 -9 64 -9 145 0
122 2 145 15 145 11 0 15 -12 15 -49z m230 -7 c0 -55 0 -55 22 -40 34 24 66
19 100 -14 28 -28 30 -35 26 -85 -6 -67 -28 -95 -75 -95 -19 0 -43 5 -53 10
-13 7 -21 7 -25 0 -19 -30 -25 3 -25 135 0 122 2 145 15 145 12 0 15 -13 15
-56z m340 -89 c0 -122 -2 -145 -15 -145 -13 0 -15 23 -15 145 0 122 2 145 15
145 13 0 15 -23 15 -145z m90 0 c0 -122 -2 -145 -15 -145 -13 0 -15 23 -15
145 0 122 2 145 15 145 13 0 15 -23 15 -145z m200 0 c0 -122 -2 -145 -15 -145
-13 0 -15 23 -15 145 0 122 2 145 15 145 13 0 15 -23 15 -145z m690 0 c0 -118
-3 -145 -14 -145 -8 0 -16 6 -19 13 -4 10 -7 10 -18 0 -7 -7 -30 -13 -50 -13
-53 0 -79 35 -79 104 0 30 6 61 15 73 21 30 78 40 110 19 l25 -16 0 55 c0 42
3 55 15 55 13 0 15 -23 15 -145z m-1667 36 c12 -12 22 -38 24 -68 5 -42 1 -53
-22 -81 -22 -27 -34 -32 -69 -32 -53 0 -85 31 -93 87 -6 47 17 99 50 113 31
14 88 4 110 -19z m1181 9 c6 -6 13 -51 14 -100 3 -77 2 -90 -12 -90 -9 0 -16
7 -16 17 0 15 -1 15 -18 0 -28 -25 -87 -22 -106 5 -9 12 -16 30 -16 39 0 28
48 59 91 59 44 0 54 11 38 41 -9 19 -17 21 -55 15 -34 -4 -44 -2 -44 8 0 8 8
17 18 20 26 7 93 -1 106 -14z m131 6 c25 18 65 18 93 -2 20 -14 22 -23 22
-105 0 -72 -3 -89 -15 -89 -12 0 -15 15 -15 78 0 85 -8 102 -51 102 -39 0 -52
-22 -57 -105 -3 -55 -8 -75 -18 -75 -11 0 -14 22 -14 98 0 100 6 125 25 99 9
-13 13 -13 30 -1z m-724 -190 c-16 -19 -41 -10 -41 14 0 24 21 31 39 14 11
-10 12 -16 2 -28z m299 14 c0 -23 -29 -35 -36 -15 -4 8 -4 22 0 30 7 20 36 8
36 -15z"/>
<path d="M1258 2783 c-14 -2 -32 -11 -38 -19 -11 -12 -6 -14 25 -14 31 0 36
-3 30 -17 -4 -10 -9 -55 -12 -100 l-6 -83 112 0 c92 0 111 -3 111 -15 0 -13
-21 -15 -125 -15 l-125 0 0 -65 c0 -58 -2 -65 -20 -65 -14 0 -20 -7 -20 -24 0
-33 10 -56 24 -56 6 0 18 -19 26 -42 12 -35 22 -45 50 -55 44 -15 301 -17 352
-2 38 10 68 48 68 84 0 8 9 15 20 15 17 0 20 7 20 40 0 38 -2 40 -30 40 l-30
0 0 65 c0 51 -3 65 -15 65 -8 0 -15 7 -15 15 0 11 12 15 46 15 l47 0 -6 83
c-7 110 -10 117 -60 117 -24 0 -48 7 -60 18 -16 14 -42 17 -181 18 -88 1 -173
0 -188 -3z m372 -93 c0 -6 -42 -10 -105 -10 -63 0 -105 4 -105 10 0 6 42 10
105 10 63 0 105 -4 105 -10z m-227 -277 c-24 -2 -62 -2 -85 0 -24 2 -5 4 42 4
47 0 66 -2 43 -4z m190 -90 c-23 -2 -64 -2 -90 0 -26 2 -7 3 42 3 50 0 71 -1
48 -3z m-205 -60 c-16 -2 -40 -2 -55 0 -16 2 -3 4 27 4 30 0 43 -2 28 -4z"/>
<path d="M2297 2783 c-4 -3 -7 -22 -7 -41 0 -25 5 -35 20 -39 24 -6 28 -60 5
-69 -12 -5 -15 -25 -15 -90 l0 -84 40 0 c22 0 40 -4 40 -10 0 -5 -25 -10 -55
-10 l-55 0 0 -60 0 -60 58 -2 c31 0 80 -1 107 -1 39 0 42 -1 13 -4 -34 -4 -38
-7 -38 -34 l0 -29 -70 0 c-68 0 -70 -1 -70 -25 l0 -25 193 0 c105 0 202 3 213
6 12 3 27 17 33 30 10 22 16 24 81 24 l70 0 0 30 0 29 -72 3 -73 3 -5 35 c-7
51 -33 60 -177 60 -70 0 -124 4 -128 10 -4 6 15 10 50 10 35 0 54 4 50 10 -3
6 -24 10 -46 10 l-39 0 0 41 c0 77 4 79 151 79 131 0 169 8 169 36 0 8 7 17
15 20 19 8 20 64 1 64 -8 0 -18 16 -23 37 -6 27 -15 39 -33 44 -32 9 -395 11
-403 2z m111 -40 c-15 -2 -42 -2 -60 0 -18 2 -6 4 27 4 33 0 48 -2 33 -4z
m222 -63 c0 -6 -40 -10 -100 -10 -60 0 -100 4 -100 10 0 6 40 10 100 10 60 0
100 -4 100 -10z m-32 -457 c-27 -2 -69 -2 -95 0 -27 2 -5 3 47 3 52 0 74 -1
48 -3z"/>
<path d="M3297 2783 c-4 -3 -7 -22 -7 -41 0 -25 5 -35 20 -39 24 -6 28 -60 5
-69 -12 -5 -15 -25 -15 -90 l0 -84 40 0 c22 0 40 -4 40 -10 0 -5 -25 -10 -55
-10 l-55 0 0 -60 0 -60 58 -2 c31 0 80 -1 107 -1 39 0 42 -1 13 -4 -34 -4 -38
-7 -38 -34 l0 -29 -70 0 c-68 0 -70 -1 -70 -25 l0 -25 193 0 c105 0 202 3 213
6 12 3 27 17 33 30 10 22 16 24 81 24 l70 0 0 30 0 29 -72 3 -73 3 -5 35 c-7
51 -33 60 -177 60 -70 0 -124 4 -128 10 -4 6 15 10 50 10 35 0 54 4 50 10 -3
6 -24 10 -46 10 l-39 0 0 41 c0 77 4 79 151 79 131 0 169 8 169 36 0 8 7 17
15 20 19 8 20 64 1 64 -8 0 -18 16 -23 37 -6 27 -15 39 -33 44 -32 9 -395 11
-403 2z m111 -40 c-15 -2 -42 -2 -60 0 -18 2 -6 4 27 4 33 0 48 -2 33 -4z
m222 -63 c0 -6 -40 -10 -100 -10 -60 0 -100 4 -100 10 0 6 40 10 100 10 60 0
100 -4 100 -10z m-32 -457 c-27 -2 -69 -2 -95 0 -27 2 -5 3 47 3 52 0 74 -1
48 -3z"/>
<path d="M1876 1444 c-10 -10 -16 -33 -16 -64 0 -42 4 -52 26 -67 24 -15 29
-15 53 -2 22 12 26 23 29 66 2 36 -2 55 -13 67 -21 20 -59 21 -79 0z"/>
<path d="M2104 1435 c-21 -32 -13 -103 12 -122 42 -30 83 -5 91 55 7 55 -15
92 -57 92 -21 0 -35 -8 -46 -25z"/>
<path d="M3276 1438 c-49 -70 21 -179 78 -122 23 22 25 106 4 132 -17 20 -65
14 -82 -10z"/>
<path d="M1643 1452 c-38 -24 -36 -113 4 -139 49 -32 101 24 88 94 -8 44 -56
68 -92 45z"/>
<path d="M2828 1369 c-22 -13 -23 -55 -2 -63 30 -11 62 5 73 36 6 17 11 33 11
34 0 8 -66 3 -82 -7z"/>
<path d="M907 4083 c-122 -124 -191 -208 -282 -344 -216 -324 -348 -720 -371
-1116 l-7 -123 70 0 69 0 12 148 c22 271 88 522 200 754 109 229 215 380 394
564 65 66 118 124 118 128 0 9 -81 96 -90 96 -4 0 -55 -48 -113 -107z"/>
<path d="M4 2378 c26 -467 162 -879 416 -1261 161 -242 351 -444 581 -617 329
-248 724 -409 1166 -477 157 -24 518 -24 678 1 468 71 847 237 1234 539 l62
48 -47 54 -47 54 -61 -50 c-180 -147 -480 -315 -703 -393 -479 -167 -1015
-176 -1488 -25 -207 66 -314 114 -515 232 -227 134 -496 376 -656 590 -289
385 -439 788 -476 1275 l-12 152 -69 0 -70 0 7 -122z"/>
<path d="M4610 2481 c0 -10 -5 -76 -10 -147 -65 -806 -587 -1507 -1340 -1797
-63 -25 -127 -49 -141 -53 l-27 -9 20 -65 c11 -36 21 -66 23 -68 5 -6 227 80
327 127 359 168 686 451 912 791 223 335 346 709 372 1128 l7 112 -72 0 c-62
0 -71 -2 -71 -19z"/>
<path d="M410 1851 c-65 -20 -65 -13 -4 -169 180 -463 503 -845 934 -1107 303
-184 670 -296 1053 -320 l107 -7 0 71 c0 71 0 71 -27 71 -72 0 -269 22 -367
41 -559 105 -1053 435 -1368 913 -74 113 -175 313 -218 434 -18 50 -38 92 -44
91 -6 0 -36 -8 -66 -18z"/>
</g>
</svg>
